<svg xmlns="http://www.w3.org/2000/svg" viewBox="472.93 388.08 1562.31 246.5" width="200" height="32" class="transition-all duration-200" color="#ffffff"><defs><clipPath id="a"><path d="M0-.003h2508.176V1022.67H0Z"/></clipPath></defs><g clip-path="url(#a)" data-name="a" fill="#ffffff"><path d="M719.443 410.274v202.12c0 12.26-9.94 22.19-22.19 22.19h-202.13c-12.26 0-22.19-9.94-22.19-22.19v-167.61c18.65 36.46 49.41 65.7 86.96 82.42 9.07 4.04 18.54 7.35 28.34 9.86 9.59 2.46 19.49 4.13 29.63 4.97-4.95.42-9.95.62-15 .62-1.28 0-2.55-.01-3.82-.04-18.48-.38-36.29-3.56-52.99-9.13a74.54 74.54 0 0 1-23.64 3.82c-10.84 0-21.15-2.31-30.45-6.47 23.94 26.01 58.28 42.32 96.43 42.32 35.22 0 67.2-13.9 90.76-36.51 3.27-3.13 6.37-6.43 9.3-9.89.22-.26.45-.53.67-.8-3.21.59-6.46 1.07-9.75 1.41-1.59.17-3.18.31-4.78.41-2.9.2-5.82.3-8.77.3-29.88 0-57.37-10.27-79.11-27.48a128.139 128.139 0 0 1-32.81-38.79c-.61 3.86-.94 7.82-.94 11.85 0 12.75 3.2 24.75 8.84 35.25-32.03-17.7-58.06-44.9-74.31-77.8-4.32-8.74-7.95-17.88-10.82-27.36-.39-1.29-.77-2.58-1.13-3.88 3.73-7.01 11.11-11.78 19.6-11.78h202.12c4.49 0 8.66 1.33 12.15 3.62 6.05 3.97 10.04 10.8 10.04 18.57ZM777.043 435.624h26.13v104.08c0 3.51.54 6.2 1.62 8.05 1.08 1.85 2.51 3.12 4.29 3.79 1.78.67 3.75 1.01 5.92 1.01 1.64 0 3.14-.12 4.51-.36 1.37-.24 2.42-.46 3.14-.65l4.4 20.43c-1.4.48-3.38 1.01-5.95 1.59-2.57.58-5.71.91-9.42 1.01-6.54.19-12.44-.81-17.68-3-5.25-2.19-9.4-5.59-12.45-10.21-3.06-4.62-4.56-10.39-4.51-17.32v-108.41Zm48 46.77h-36.32v-20.21h36.32ZM865.913 508.094v64.96h-26.13v-136.46h25.55v44.44h1.3c2.6-6.25 6.63-11.2 12.09-14.83 5.46-3.63 12.43-5.45 20.9-5.45 7.7 0 14.41 1.61 20.14 4.84 5.73 3.22 10.16 7.94 13.32 14.15 3.15 6.21 4.73 13.79 4.73 22.74v70.59h-26.13v-66.55c0-7.46-1.91-13.27-5.74-17.43s-9.18-6.24-16.06-6.24c-4.62 0-8.75 1-12.38 3-3.63 2-6.47 4.87-8.52 8.63-2.05 3.75-3.07 8.3-3.07 13.64ZM1004.303 554.294c5.87 0 10.78-1.62 14.72-4.87 3.95-3.25 6.89-7.62 8.84-13.1 1.95-5.48 2.92-11.6 2.92-18.33 0-6.73-.97-12.93-2.92-18.44-1.95-5.51-4.9-9.9-8.84-13.17-3.95-3.27-8.85-4.91-14.72-4.91-5.87 0-11.01 1.64-14.98 4.91-3.97 3.27-6.93 7.66-8.88 13.17-1.95 5.51-2.92 11.66-2.92 18.44 0 6.78.97 12.85 2.92 18.33 1.95 5.49 4.91 9.85 8.88 13.1 3.97 3.25 8.96 4.87 14.98 4.87m-.14 20.93c-10.83 0-20.21-2.38-28.15-7.15-7.94-4.76-14.09-11.43-18.44-19.99-4.36-8.56-6.53-18.57-6.53-30.03s2.18-21.48 6.53-30.1c4.35-8.61 10.5-15.3 18.44-20.07 7.94-4.76 17.32-7.15 28.15-7.15 10.83 0 20.21 2.38 28.15 7.15 7.94 4.76 14.09 11.45 18.44 20.07 4.35 8.61 6.53 18.65 6.53 30.1 0 11.45-2.18 21.46-6.53 30.03-4.36 8.57-10.5 15.23-18.44 19.99-7.94 4.76-17.32 7.15-28.15 7.15M1070.363 573.054v-110.87h24.97v18.84h1.3c2.31-6.35 6.14-11.32 11.48-14.91 5.34-3.58 11.72-5.38 19.13-5.38 7.41 0 13.85 1.82 19.02 5.45s8.82 8.58 10.94 14.83h1.15c2.45-6.16 6.6-11.08 12.45-14.76 5.85-3.68 12.79-5.52 20.82-5.52 10.2 0 18.53 3.22 24.97 9.67 6.45 6.45 9.67 15.86 9.67 28.22v74.42h-26.2v-70.38c0-6.88-1.83-11.92-5.49-15.12-3.66-3.2-8.13-4.8-13.43-4.8-6.3 0-11.22 1.96-14.76 5.88-3.54 3.92-5.31 9.01-5.31 15.27v69.15h-25.62v-71.46c0-5.73-1.72-10.3-5.16-13.71-3.44-3.42-7.93-5.12-13.46-5.12-3.75 0-7.17.95-10.25 2.85-3.08 1.9-5.53 4.57-7.36 8.01-1.83 3.44-2.74 7.45-2.74 12.02v67.42h-26.13ZM1282.953 556.094c5.24 0 9.79-1.05 13.64-3.14 3.85-2.09 6.82-4.87 8.91-8.34 2.09-3.47 3.14-7.24 3.14-11.33v-13.06c-.82.67-2.2 1.3-4.15 1.88-1.95.58-4.13 1.08-6.53 1.52-2.41.43-4.79.82-7.15 1.15-2.36.34-4.4.63-6.14.87-3.9.53-7.39 1.4-10.47 2.6-3.08 1.2-5.51 2.88-7.29 5.02-1.78 2.14-2.67 4.9-2.67 8.26 0 4.81 1.76 8.45 5.27 10.9 3.51 2.45 7.99 3.68 13.43 3.68Zm-6.78 19.2c-7.03 0-13.34-1.26-18.95-3.79-5.61-2.53-10.03-6.27-13.28-11.22-3.25-4.96-4.87-11.07-4.87-18.33 0-6.25 1.15-11.43 3.46-15.52s5.46-7.36 9.46-9.82c3.99-2.45 8.5-4.32 13.53-5.59 5.03-1.27 10.24-2.2 15.63-2.78 6.5-.67 11.77-1.29 15.81-1.84 4.04-.55 6.99-1.42 8.84-2.6 1.85-1.18 2.78-3.02 2.78-5.52v-.43c0-5.44-1.61-9.65-4.84-12.63-3.22-2.98-7.87-4.48-13.93-4.48-6.4 0-11.47 1.4-15.19 4.19-3.73 2.79-6.24 6.09-7.54 9.89l-24.4-3.46c1.92-6.74 5.1-12.38 9.53-16.93 4.43-4.55 9.84-7.96 16.24-10.25 6.4-2.29 13.47-3.43 21.22-3.43 5.34 0 10.66.63 15.95 1.88 5.29 1.25 10.13 3.31 14.51 6.17 4.38 2.86 7.9 6.75 10.57 11.66s4.01 11.04 4.01 18.41v74.2h-25.12v-15.23h-.87c-1.59 3.08-3.81 5.95-6.68 8.63-2.86 2.67-6.45 4.81-10.75 6.42-4.31 1.61-9.35 2.42-15.12 2.42ZM1439.683 491.494l-23.82 2.6c-.67-2.41-1.84-4.67-3.5-6.78-1.66-2.12-3.89-3.83-6.68-5.12-2.79-1.3-6.21-1.95-10.25-1.95-5.44 0-10 1.18-13.68 3.54-3.68 2.36-5.5 5.41-5.45 9.17-.05 3.22 1.14 5.85 3.57 7.87 2.43 2.02 6.46 3.68 12.09 4.98l18.91 4.04c10.49 2.26 18.3 5.85 23.42 10.75 5.12 4.9 7.71 11.33 7.76 19.27-.05 6.98-2.08 13.13-6.1 18.44-4.02 5.32-9.59 9.47-16.71 12.45-7.12 2.98-15.3 4.48-24.54 4.48-13.57 0-24.49-2.85-32.77-8.55-8.28-5.7-13.21-13.65-14.8-23.86l25.48-2.45c1.15 5.01 3.61 8.78 7.36 11.33 3.75 2.55 8.64 3.83 14.65 3.83s11.2-1.27 14.98-3.83c3.78-2.55 5.67-5.7 5.67-9.46 0-3.18-1.22-5.8-3.65-7.87-2.43-2.07-6.2-3.66-11.3-4.76l-18.91-3.97c-10.64-2.21-18.5-5.95-23.6-11.22-5.1-5.27-7.63-11.95-7.58-20.03-.05-6.83 1.82-12.76 5.59-17.79 3.78-5.03 9.05-8.93 15.81-11.69 6.76-2.77 14.57-4.15 23.42-4.15 12.99 0 23.23 2.77 30.71 8.3 7.48 5.53 12.11 13.02 13.89 22.45ZM1543.723 575.224c-11.07 0-20.56-2.43-28.47-7.29-7.92-4.86-14-11.58-18.26-20.17-4.26-8.59-6.39-18.49-6.39-29.7s2.17-21.21 6.5-29.85 10.45-15.37 18.37-20.21c7.91-4.84 17.29-7.25 28.11-7.25 9 0 16.97 1.65 23.93 4.94 6.95 3.3 12.5 7.94 16.64 13.93 4.14 5.99 6.5 12.98 7.07 20.97h-24.97c-1.01-5.34-3.4-9.8-7.18-13.39-3.78-3.58-8.82-5.38-15.12-5.38-5.34 0-10.03 1.43-14.08 4.29-4.04 2.86-7.18 6.97-9.42 12.31-2.24 5.34-3.36 11.74-3.36 19.2 0 7.46 1.11 14.04 3.32 19.45s5.33 9.58 9.35 12.49 8.75 4.37 14.18 4.37c3.85 0 7.3-.73 10.36-2.2 3.06-1.47 5.62-3.6 7.69-6.39 2.07-2.79 3.49-6.18 4.26-10.18h24.97c-.63 7.84-2.94 14.79-6.93 20.82-3.99 6.04-9.43 10.75-16.31 14.15-6.88 3.39-14.97 5.09-24.25 5.09ZM1642.403 556.094c5.24 0 9.79-1.05 13.64-3.14 3.85-2.09 6.82-4.87 8.91-8.34 2.09-3.47 3.14-7.24 3.14-11.33v-13.06c-.82.67-2.2 1.3-4.15 1.88-1.95.58-4.13 1.08-6.53 1.52-2.41.43-4.79.82-7.15 1.15-2.36.34-4.4.63-6.14.87-3.9.53-7.39 1.4-10.47 2.6-3.08 1.2-5.51 2.88-7.29 5.02-1.78 2.14-2.67 4.9-2.67 8.26 0 4.81 1.76 8.45 5.27 10.9 3.51 2.45 7.99 3.68 13.43 3.68Zm-6.78 19.2c-7.03 0-13.34-1.26-18.95-3.79-5.61-2.53-10.03-6.27-13.28-11.22-3.25-4.96-4.87-11.07-4.87-18.33 0-6.25 1.15-11.43 3.46-15.52s5.46-7.36 9.46-9.82c3.99-2.45 8.5-4.32 13.53-5.59 5.03-1.27 10.24-2.2 15.63-2.78 6.5-.67 11.77-1.29 15.81-1.84 4.04-.55 6.99-1.42 8.84-2.6 1.85-1.18 2.78-3.02 2.78-5.52v-.43c0-5.44-1.61-9.65-4.84-12.63-3.22-2.98-7.87-4.48-13.93-4.48-6.4 0-11.47 1.4-15.19 4.19-3.73 2.79-6.24 6.09-7.54 9.89l-24.4-3.46c1.92-6.74 5.1-12.38 9.53-16.93 4.43-4.55 9.84-7.96 16.24-10.25 6.4-2.29 13.47-3.43 21.22-3.43 5.34 0 10.66.63 15.95 1.88 5.29 1.25 10.13 3.31 14.51 6.17 4.38 2.86 7.9 6.75 10.57 11.66s4.01 11.04 4.01 18.41v74.2h-25.12v-15.23h-.87c-1.59 3.08-3.81 5.95-6.68 8.63-2.86 2.67-6.45 4.81-10.75 6.42-4.31 1.61-9.35 2.42-15.12 2.42ZM1711.503 573.054v-110.87h25.34v18.48h1.15c2.02-6.4 5.5-11.34 10.43-14.83s10.57-5.23 16.93-5.23c1.44 0 3.07.06 4.87.18 1.8.12 3.31.3 4.51.54v24.04c-1.11-.38-2.85-.73-5.23-1.05-2.38-.31-4.68-.47-6.89-.47-4.76 0-9.03 1.02-12.81 3.07-3.78 2.05-6.75 4.87-8.91 8.48-2.16 3.61-3.25 7.77-3.25 12.49v65.18h-26.13ZM1784.003 573.054v-110.87h25.34v18.48h1.15c2.02-6.4 5.5-11.34 10.43-14.83s10.57-5.23 16.93-5.23c1.44 0 3.07.06 4.87.18 1.8.12 3.31.3 4.51.54v24.04c-1.11-.38-2.85-.73-5.23-1.05-2.38-.31-4.68-.47-6.89-.47-4.76 0-9.03 1.02-12.81 3.07-3.78 2.05-6.75 4.87-8.91 8.48-2.17 3.61-3.25 7.77-3.25 12.49v65.18h-26.13ZM1900.373 554.294c5.87 0 10.78-1.62 14.72-4.87 3.95-3.25 6.89-7.62 8.84-13.1 1.95-5.49 2.92-11.6 2.92-18.33 0-6.73-.97-12.93-2.92-18.44-1.95-5.51-4.9-9.9-8.84-13.17-3.95-3.27-8.85-4.91-14.72-4.91-5.87 0-11.01 1.64-14.98 4.91-3.97 3.27-6.93 7.66-8.88 13.17-1.95 5.51-2.92 11.66-2.92 18.44 0 6.78.97 12.85 2.92 18.33 1.95 5.49 4.91 9.85 8.88 13.1 3.97 3.25 8.96 4.87 14.98 4.87m-.14 20.93c-10.83 0-20.21-2.38-28.15-7.15-7.94-4.76-14.09-11.43-18.44-19.99-4.36-8.56-6.53-18.57-6.53-30.03s2.18-21.48 6.53-30.1c4.35-8.61 10.5-15.3 18.44-20.07 7.94-4.76 17.32-7.15 28.15-7.15 10.83 0 20.21 2.38 28.15 7.15 7.94 4.76 14.09 11.45 18.44 20.07 4.35 8.61 6.53 18.65 6.53 30.1 0 11.45-2.18 21.46-6.53 30.03-4.36 8.57-10.5 15.23-18.44 19.99-7.94 4.76-17.32 7.15-28.15 7.15M1991.263 573.064h-26.13v-136.47h26.13ZM2035.243 573.064h-26.13v-136.47h26.13Z"/></g></svg>