<svg xmlns="http://www.w3.org/2000/svg" xmlns:xlink="http://www.w3.org/1999/xlink" version="1.1" viewBox="472.93 388.08 1562.31 246.5">
<defs>
<clipPath id="clip_0">
<path transform="matrix(1,0,0,-1,0,1022.67)" d="M0 1022.673H2508.176V0H0Z"/>
</clipPath>
</defs>
<g>
<g id="layer_1" data-name="a">
<g clip-path="url(#clip_0)">
<path transform="matrix(1,0,0,-1,719.4429,410.27369)" d="M0 0V-202.12C0-214.38-9.94-224.31-22.19-224.31H-224.32C-236.58-224.31-246.51-214.37-246.51-202.12V-34.51C-227.86-70.97-197.1-100.21-159.55-116.93-150.48-120.97-141.01-124.28-131.21-126.79-121.62-129.25-111.72-130.92-101.58-131.76-106.53-132.18-111.53-132.38-116.58-132.38-117.86-132.38-119.13-132.37-120.4-132.34-138.88-131.96-156.69-128.78-173.39-123.21-180.82-125.69-188.77-127.03-197.03-127.03-207.87-127.03-218.18-124.72-227.48-120.56-203.54-146.57-169.2-162.88-131.05-162.88-95.83-162.88-63.85-148.98-40.29-126.37-37.02-123.24-33.92-119.94-30.99-116.48-30.77-116.22-30.54-115.95-30.32-115.68-33.53-116.27-36.78-116.75-40.07-117.09-41.66-117.26-43.25-117.4-44.85-117.5-47.75-117.7-50.67-117.8-53.62-117.8-83.5-117.8-110.99-107.53-132.73-90.32-146.09-79.75-157.29-66.56-165.54-51.53-166.15-55.39-166.48-59.35-166.48-63.38-166.48-76.13-163.28-88.13-157.64-98.63-189.67-80.93-215.7-53.73-231.95-20.83-236.27-12.09-239.9-2.95-242.77 6.53-243.16 7.82-243.54 9.11-243.9 10.41-240.17 17.42-232.79 22.19-224.3 22.19H-22.18C-17.69 22.19-13.52 20.86-10.03 18.57-3.98 14.6 .01 7.77 .01 0Z" />
<path transform="matrix(1,0,0,-1,777.0429,435.62367)" d="M0 0H26.13V-104.08C26.13-107.59 26.67-110.28 27.75-112.13 28.83-113.98 30.26-115.25 32.04-115.92 33.82-116.59 35.79-116.93 37.96-116.93 39.6-116.93 41.1-116.81 42.47-116.57 43.84-116.33 44.89-116.11 45.61-115.92L50.01-136.35C48.61-136.83 46.63-137.36 44.06-137.94 41.49-138.52 38.35-138.85 34.64-138.95 28.1-139.14 22.2-138.14 16.96-135.95 11.71-133.76 7.56-130.36 4.51-125.74 1.45-121.12-.05-115.35 0-108.42V-.01ZM48-46.77H11.68V-26.560002H48Z" />
<path transform="matrix(1,0,0,-1,865.9129,508.0937)" d="M0 0V-64.96H-26.13V71.5H-.58V27.06H.72C3.32 33.31 7.35 38.26 12.81 41.89 18.27 45.52 25.24 47.34 33.71 47.34 41.41 47.34 48.12 45.73 53.85 42.5 59.58 39.28 64.01 34.56 67.17 28.35 70.32 22.14 71.9 14.56 71.9 5.61V-64.98H45.77V1.57C45.77 9.03 43.86 14.84 40.03 19 36.2 23.16 30.85 25.24 23.97 25.24 19.35 25.24 15.22 24.24 11.59 22.24 7.96 20.24 5.12 17.37 3.07 13.61 1.02 9.86 0 5.31 0-.03Z" />
<path transform="matrix(1,0,0,-1,1004.3029,554.2937)" d="M0 0C5.87 0 10.78 1.62 14.72 4.87 18.67 8.12 21.61 12.49 23.56 17.97 25.51 23.45 26.48 29.57 26.48 36.3 26.48 43.03 25.51 49.23 23.56 54.74 21.61 60.25 18.66 64.64 14.72 67.91 10.77 71.18 5.87 72.82 0 72.82-5.87 72.82-11.01 71.18-14.98 67.91-18.95 64.64-21.91 60.25-23.86 54.74-25.81 49.23-26.78 43.08-26.78 36.3-26.78 29.52-25.81 23.45-23.86 17.97-21.91 12.48-18.95 8.12-14.98 4.87-11.01 1.62-6.02 0 0 0M-.14-20.93C-10.97-20.93-20.35-18.55-28.29-13.78-36.23-9.02-42.38-2.35-46.73 6.21-51.09 14.77-53.26 24.78-53.26 36.24-53.26 47.7-51.08 57.72-46.73 66.34-42.38 74.95-36.23 81.64-28.29 86.41-20.35 91.17-10.97 93.56-.14 93.56 10.69 93.56 20.07 91.18 28.01 86.41 35.95 81.65 42.1 74.96 46.45 66.34 50.8 57.73 52.98 47.69 52.98 36.24 52.98 24.79 50.8 14.78 46.45 6.21 42.09-2.36 35.95-9.02 28.01-13.78 20.07-18.54 10.69-20.93-.14-20.93" />
<path transform="matrix(1,0,0,-1,1070.3629,573.0537)" d="M0 0V110.87H24.97V92.03H26.27C28.58 98.38 32.41 103.35 37.75 106.94 43.09 110.52 49.47 112.32 56.88 112.32 64.29 112.32 70.73 110.5 75.9 106.87 81.07 103.24 84.72 98.29 86.84 92.04H87.99C90.44 98.2 94.59 103.12 100.44 106.8 106.29 110.48 113.23 112.32 121.26 112.32 131.46 112.32 139.79 109.1 146.23 102.65 152.68 96.2 155.9 86.79 155.9 74.43V.01H129.7V70.39C129.7 77.27 127.87 82.31 124.21 85.51 120.55 88.71 116.08 90.31 110.78 90.31 104.48 90.31 99.56 88.35 96.02 84.43 92.48 80.51 90.71 75.42 90.71 69.16V.01H65.09V71.47C65.09 77.2 63.37 81.77 59.93 85.18 56.49 88.6 52 90.3 46.47 90.3 42.72 90.3 39.3 89.35 36.22 87.45 33.14 85.55 30.69 82.88 28.86 79.44 27.03 76 26.12 71.99 26.12 67.42V0H-.01Z" />
<path transform="matrix(1,0,0,-1,1282.9529,556.0937)" d="M0 0C5.24 0 9.79 1.05 13.64 3.14 17.49 5.23 20.46 8.01 22.55 11.48 24.64 14.95 25.69 18.72 25.69 22.81V35.87C24.87 35.2 23.49 34.57 21.54 33.99 19.59 33.41 17.41 32.91 15.01 32.47 12.6 32.04 10.22 31.65 7.86 31.32 5.5 30.98 3.46 30.69 1.72 30.45-2.18 29.92-5.67 29.05-8.75 27.85-11.83 26.65-14.26 24.97-16.04 22.83-17.82 20.69-18.71 17.93-18.71 14.57-18.71 9.76-16.95 6.12-13.44 3.67-9.93 1.22-5.45-.01-.01-.01ZM-6.78-19.2C-13.81-19.2-20.12-17.94-25.73-15.41-31.34-12.88-35.76-9.14-39.01-4.19-42.26 .77-43.88 6.88-43.88 14.14-43.88 20.39-42.73 25.57-40.42 29.66-38.11 33.75-34.96 37.02-30.96 39.48-26.97 41.93-22.46 43.8-17.43 45.07-12.4 46.34-7.19 47.27-1.8 47.85 4.7 48.52 9.97 49.14 14.01 49.69 18.05 50.24 21 51.11 22.85 52.29 24.7 53.47 25.63 55.31 25.63 57.81V58.24C25.63 63.68 24.02 67.89 20.79 70.87 17.57 73.85 12.92 75.35 6.86 75.35 .46 75.35-4.61 73.95-8.33 71.16-12.06 68.37-14.57 65.07-15.87 61.27L-40.27 64.73C-38.35 71.47-35.17 77.11-30.74 81.66-26.31 86.21-20.9 89.62-14.5 91.91-8.1 94.2-1.03 95.34 6.72 95.34 12.06 95.34 17.38 94.71 22.67 93.46 27.96 92.21 32.8 90.15 37.18 87.29 41.56 84.43 45.08 80.54 47.75 75.63 50.42 70.72 51.76 64.59 51.76 57.22V-16.98H26.64V-1.75H25.77C24.18-4.83 21.96-7.7 19.09-10.38 16.23-13.05 12.64-15.19 8.34-16.8 4.03-18.41-1.01-19.22-6.78-19.22Z" />
<path transform="matrix(1,0,0,-1,1439.6829,491.4937)" d="M0 0-23.82-2.6C-24.49-.19-25.66 2.07-27.32 4.18-28.98 6.3-31.21 8.01-34 9.3-36.79 10.6-40.21 11.25-44.25 11.25-49.69 11.25-54.25 10.07-57.93 7.71-61.61 5.35-63.43 2.3-63.38-1.46-63.43-4.68-62.24-7.31-59.81-9.33-57.38-11.35-53.35-13.01-47.72-14.31L-28.81-18.35C-18.32-20.61-10.51-24.2-5.39-29.1-.27-34 2.32-40.43 2.37-48.37 2.32-55.35 .29-61.5-3.73-66.81-7.75-72.13-13.32-76.28-20.44-79.26-27.56-82.24-35.74-83.74-44.98-83.74-58.55-83.74-69.47-80.89-77.75-75.19-86.03-69.49-90.96-61.54-92.55-51.33L-67.07-48.88C-65.92-53.89-63.46-57.66-59.71-60.21-55.96-62.76-51.07-64.04-45.06-64.04-39.05-64.04-33.86-62.77-30.08-60.21-26.3-57.66-24.41-54.51-24.41-50.75-24.41-47.57-25.63-44.95-28.06-42.88-30.49-40.81-34.26-39.22-39.36-38.12L-58.27-34.15C-68.91-31.94-76.77-28.2-81.87-22.93-86.97-17.66-89.5-10.98-89.45-2.9-89.5 3.93-87.63 9.86-83.86 14.89-80.08 19.92-74.81 23.82-68.05 26.58-61.29 29.35-53.48 30.73-44.63 30.73-31.64 30.73-21.4 27.96-13.92 22.43-6.44 16.9-1.81 9.41-.03-.02Z" />
<path transform="matrix(1,0,0,-1,1543.7229,575.2237)" d="M0 0C-11.07 0-20.56 2.43-28.47 7.29-36.39 12.15-42.47 18.87-46.73 27.46-50.99 36.05-53.12 45.95-53.12 57.16-53.12 68.37-50.95 78.37-46.62 87.01-42.29 95.65-36.17 102.38-28.25 107.22-20.34 112.06-10.96 114.47-.14 114.47 8.86 114.47 16.83 112.82 23.79 109.53 30.74 106.23 36.29 101.59 40.43 95.6 44.57 89.61 46.93 82.62 47.5 74.63H22.53C21.52 79.97 19.13 84.43 15.35 88.02 11.57 91.6 6.53 93.4 .23 93.4-5.11 93.4-9.8 91.97-13.85 89.11-17.89 86.25-21.03 82.14-23.27 76.8-25.51 71.46-26.63 65.06-26.63 57.6-26.63 50.14-25.52 43.56-23.31 38.15-21.1 32.74-17.98 28.57-13.96 25.66-9.94 22.75-5.21 21.29 .22 21.29 4.07 21.29 7.52 22.02 10.58 23.49 13.64 24.96 16.2 27.09 18.27 29.88 20.34 32.67 21.76 36.06 22.53 40.06H47.5C46.87 32.22 44.56 25.27 40.57 19.24 36.58 13.2 31.14 8.49 24.26 5.09 17.38 1.7 9.29 0 .01 0Z" />
<path transform="matrix(1,0,0,-1,1642.4028,556.0937)" d="M0 0C5.24 0 9.79 1.05 13.64 3.14 17.49 5.23 20.46 8.01 22.55 11.48 24.64 14.95 25.69 18.72 25.69 22.81V35.87C24.87 35.2 23.49 34.57 21.54 33.99 19.59 33.41 17.41 32.91 15.01 32.47 12.6 32.04 10.22 31.65 7.86 31.32 5.5 30.98 3.46 30.69 1.72 30.45-2.18 29.92-5.67 29.05-8.75 27.85-11.83 26.65-14.26 24.97-16.04 22.83-17.82 20.69-18.71 17.93-18.71 14.57-18.71 9.76-16.95 6.12-13.44 3.67-9.93 1.22-5.45-.01-.01-.01ZM-6.78-19.2C-13.81-19.2-20.12-17.94-25.73-15.41-31.34-12.88-35.76-9.14-39.01-4.19-42.26 .77-43.88 6.88-43.88 14.14-43.88 20.39-42.73 25.57-40.42 29.66-38.11 33.75-34.96 37.02-30.96 39.48-26.97 41.93-22.46 43.8-17.43 45.07-12.4 46.34-7.19 47.27-1.8 47.85 4.7 48.52 9.97 49.14 14.01 49.69 18.05 50.24 21 51.11 22.85 52.29 24.7 53.47 25.63 55.31 25.63 57.81V58.24C25.63 63.68 24.02 67.89 20.79 70.87 17.57 73.85 12.92 75.35 6.86 75.35 .46 75.35-4.61 73.95-8.33 71.16-12.06 68.37-14.57 65.07-15.87 61.27L-40.27 64.73C-38.35 71.47-35.17 77.11-30.74 81.66-26.31 86.21-20.9 89.62-14.5 91.91-8.1 94.2-1.03 95.34 6.72 95.34 12.06 95.34 17.38 94.71 22.67 93.46 27.96 92.21 32.8 90.15 37.18 87.29 41.56 84.43 45.08 80.54 47.75 75.63 50.42 70.72 51.76 64.59 51.76 57.22V-16.98H26.64V-1.75H25.77C24.18-4.83 21.96-7.7 19.09-10.38 16.23-13.05 12.64-15.19 8.34-16.8 4.03-18.41-1.01-19.22-6.78-19.22Z" />
<path transform="matrix(1,0,0,-1,1711.5028,573.0537)" d="M0 0V110.87H25.34V92.39H26.49C28.51 98.79 31.99 103.73 36.92 107.22 41.85 110.71 47.49 112.45 53.85 112.45 55.29 112.45 56.92 112.39 58.72 112.27 60.52 112.15 62.03 111.97 63.23 111.73V87.69C62.12 88.07 60.38 88.42 58 88.74 55.62 89.05 53.32 89.21 51.11 89.21 46.35 89.21 42.08 88.19 38.3 86.14 34.52 84.09 31.55 81.27 29.39 77.66 27.23 74.05 26.14 69.89 26.14 65.17V-.01H.01Z" />
<path transform="matrix(1,0,0,-1,1784.0028,573.0537)" d="M0 0V110.87H25.34V92.39H26.49C28.51 98.79 31.99 103.73 36.92 107.22 41.85 110.71 47.49 112.45 53.85 112.45 55.29 112.45 56.92 112.39 58.72 112.27 60.52 112.15 62.03 111.97 63.23 111.73V87.69C62.12 88.07 60.38 88.42 58 88.74 55.62 89.05 53.32 89.21 51.11 89.21 46.35 89.21 42.08 88.19 38.3 86.14 34.52 84.09 31.55 81.27 29.39 77.66 27.22 74.05 26.14 69.89 26.14 65.17V-.01H.01Z" />
<path transform="matrix(1,0,0,-1,1900.3729,554.2937)" d="M0 0C5.87 0 10.78 1.62 14.72 4.87 18.67 8.12 21.61 12.49 23.56 17.97 25.51 23.46 26.48 29.57 26.48 36.3 26.48 43.03 25.51 49.23 23.56 54.74 21.61 60.25 18.66 64.64 14.72 67.91 10.77 71.18 5.87 72.82 0 72.82-5.87 72.82-11.01 71.18-14.98 67.91-18.95 64.64-21.91 60.25-23.86 54.74-25.81 49.23-26.78 43.08-26.78 36.3-26.78 29.52-25.81 23.45-23.86 17.97-21.91 12.48-18.95 8.12-14.98 4.87-11.01 1.62-6.02 0 0 0M-.14-20.93C-10.97-20.93-20.35-18.55-28.29-13.78-36.23-9.02-42.38-2.35-46.73 6.21-51.09 14.77-53.26 24.78-53.26 36.24-53.26 47.7-51.08 57.72-46.73 66.34-42.38 74.95-36.23 81.64-28.29 86.41-20.35 91.17-10.97 93.56-.14 93.56 10.69 93.56 20.07 91.18 28.01 86.41 35.95 81.65 42.1 74.96 46.45 66.34 50.8 57.73 52.98 47.69 52.98 36.24 52.98 24.79 50.8 14.78 46.45 6.21 42.09-2.36 35.95-9.02 28.01-13.78 20.07-18.54 10.69-20.93-.14-20.93" />
<path transform="matrix(1,0,0,-1,0,1022.67)" d="M1991.263 449.606H1965.1329V586.076H1991.263Z" />
<path transform="matrix(1,0,0,-1,0,1022.67)" d="M2035.243 449.606H2009.113V586.076H2035.243Z" />
</g>
</g>
</g>
</svg>
